<svg xmlns="http://www.w3.org/2000/svg" width="512" height="512" viewBox="-20 -20 101.751 101.751">
  <title>Wayscriber configurator icon</title>
  <desc>Orange outline pencil with settings cog.</desc>
  <path d="M328.667,219.141l-7.779-7.838a5.935,5.935,0,0,0-4.226-1.746h0a5.933,5.933,0,0,0-4.225,1.745l-38.183,38.174a1.512,1.512,0,0,0-.391.683l-5.015,19.271a1.5,1.5,0,0,0,1.452,1.878,1.472,1.472,0,0,0,.388-.051l19.154-5.132a1.49,1.49,0,0,0,.673-.389l38.148-38.147a5.989,5.989,0,0,0,.005-8.448ZM307.4,220.574l4.928,4.928-29.966,29.966-4.931-4.931Zm-31.465,46.17-2.613-2.613,2.78-10.681,10.45,10.449Zm13.514-4.189-4.966-4.966,29.966-29.966,4.966,4.966Zm37.088-37.088-5,5-12.014-12.015,5.031-5.03h0a2.953,2.953,0,0,1,2.1-.866h0a2.951,2.951,0,0,1,2.1.863l7.78,7.838a2.989,2.989,0,0,1,0,4.209Z" transform="translate(-268.799 -209.557)" fill="#FFAA00" stroke="#FFAA00" stroke-width="0.8" stroke-linejoin="round"/>
  <g transform="translate(54 54) scale(0.26) translate(-374 -386)">
    <mask id="cog-hole" maskUnits="userSpaceOnUse" x="328" y="340" width="92" height="92">
      <rect x="328" y="340" width="92" height="92" fill="white"/>
      <circle cx="374" cy="386" r="18" fill="black"/>
    </mask>
    <path d="M374,340 L387.38,353.70 L406.53,353.47 L406.30,372.62 L420,386 L406.30,399.38 L406.53,418.53 L387.38,418.30 L374,432 L360.62,418.30 L341.47,418.53 L341.70,399.38 L328,386 L341.70,372.62 L341.47,353.47 L360.62,353.70 Z" fill="#FFAA00" mask="url(#cog-hole)"/>
  </g>
</svg>
